<svg xmlns="http://www.w3.org/2000/svg" xmlns:svg="http://www.w3.org/2000/svg" xmlns:xlink="http://www.w3.org/1999/xlink" id="svg2" width="372.938" height="372.938" version="1.1"><defs id="defs4"><linearGradient id="linearGradient3797"><stop style="stop-color:#3ab809;stop-opacity:1" id="stop3799" offset="0"/><stop style="stop-color:#fff;stop-opacity:1" id="stop3801" offset="1"/></linearGradient><linearGradient id="linearGradient3763"><stop style="stop-color:#0aafc7;stop-opacity:1" id="stop3769" offset="0"/><stop id="stop3767" offset="1" style="stop-color:#fff;stop-opacity:1"/></linearGradient><linearGradient id="linearGradient3755"><stop style="stop-color:#0aafc7;stop-opacity:1" id="stop3757" offset="0"/><stop style="stop-color:#0aafc7;stop-opacity:0" id="stop3759" offset="1"/></linearGradient><radialGradient id="radialGradient3761" cx="394.927" cy="518.995" r="140.5" fx="394.927" fy="518.995" gradientTransform="matrix(0.75597358,-0.0610066,0.04854082,0.6015016,76.253307,229.99298)" gradientUnits="userSpaceOnUse" spreadMethod="pad" xlink:href="#linearGradient3763"/><linearGradient id="linearGradient3771" x1="380" x2="380" y1="592.362" y2="352.362" gradientUnits="userSpaceOnUse" xlink:href="#linearGradient3763"/><linearGradient id="linearGradient3780" x1="380" x2="380" y1="592.362" y2="352.362" gradientTransform="translate(-10,0)" gradientUnits="userSpaceOnUse" xlink:href="#linearGradient3763"/><linearGradient id="linearGradient3803" x1="433.5" x2="337.149" y1="231.363" y2="93.873" gradientTransform="matrix(0.67668751,0.73627034,-0.73627034,0.67668751,220.42154,-15.345829)" gradientUnits="userSpaceOnUse" xlink:href="#linearGradient3797"/><linearGradient id="linearGradient3805" x1="380" x2="312.118" y1="592.362" y2="298.622" gradientUnits="userSpaceOnUse" xlink:href="#linearGradient3763"/><linearGradient id="linearGradient3835" x1="433.5" x2="337.149" y1="231.363" y2="93.873" gradientTransform="matrix(0.67668751,0.73627034,-0.73627034,0.67668751,220.42154,-15.345829)" gradientUnits="userSpaceOnUse" xlink:href="#linearGradient3797"/><linearGradient id="linearGradient3837" x1="380" x2="312.118" y1="592.362" y2="298.622" gradientUnits="userSpaceOnUse" xlink:href="#linearGradient3763"/></defs><metadata id="metadata7"/><g id="layer1" transform="translate(-164.75378,-281.95511)"><rect style="fill:none;stroke:none;stroke-opacity:1" id="rect3809" width="371.938" height="371.938" x="165.254" y="282.455"/><g id="g3831" transform="translate(-28.777145,5.5939981)"><path id="path3791" d="m 319.90878,355.00485 c -14.72541,13.53375 -30.90344,32.87285 -6.06467,59.90175 24.83883,27.02886 45.47426,12.53363 60.20193,-0.99153 14.72777,-13.52505 28.71651,-55.03753 28.15165,-80.20668 -25.02919,-2.6846 -67.56351,7.76271 -82.28891,21.29646 z" style="fill:url(#linearGradient3835);fill-opacity:1;stroke:#000;stroke-width:1px;stroke-linecap:butt;stroke-linejoin:miter;stroke-opacity:.21004567"/><path id="rect2985" d="m 250,392.375 0,20 -10,0 0,180 280,0 0,-180 -190,0 0,-20 -80,0 z" style="fill:url(#linearGradient3837);fill-opacity:1;fill-rule:evenodd;stroke:#000;stroke-width:1px;stroke-linecap:butt;stroke-linejoin:miter;stroke-opacity:.2557078"/></g></g></svg>